<?xml version="1.0" encoding="UTF-8" standalone="no"?>
<!DOCTYPE svg PUBLIC "-//W3C//DTD SVG 1.1//EN"
 "http://www.w3.org/Graphics/SVG/1.1/DTD/svg11.dtd">
<!-- Generated by graphviz version 2.38.0 (20140413.2041)
 -->
<!-- Title: calliopecpuram Pages: 1 -->
<svg width="1026pt" height="500pt"
 viewBox="0.00 0.00 1026.00 500.00" xmlns="http://www.w3.org/2000/svg" xmlns:xlink="http://www.w3.org/1999/xlink">
<g id="graph0" class="graph" transform="scale(1 1) rotate(0) translate(54 446)">
<title>calliopecpuram</title>
<polygon fill="white" stroke="none" points="-54,54 -54,-446 972,-446 972,54 -54,54"/>
<g id="clust1" class="cluster"><title>cluster_callioperam</title>
<polygon fill="none" stroke="black" points="387,-8 387,-384 910,-384 910,-8 387,-8"/>
<text text-anchor="middle" x="648.5" y="-364" font-family="FreeSans" font-size="20.00">Calliope</text>
<text text-anchor="middle" x="648.5" y="-342" font-family="FreeSans" font-size="20.00">Speicher</text>
</g>
<g id="clust2" class="cluster"><title>cluster_zx81ram</title>
<polygon fill="none" stroke="black" points="726,-16 726,-324 902,-324 902,-16 726,-16"/>
<text text-anchor="middle" x="814" y="-304" font-family="FreeSans" font-size="20.00">ZX81</text>
<text text-anchor="middle" x="814" y="-282" font-family="FreeSans" font-size="20.00">Speicher</text>
</g>
<g id="clust3" class="cluster"><title>cluster_zx81erg</title>
<polygon fill="none" stroke="black" stroke-dasharray="5,2" points="734,-24 734,-146 894,-146 894,-24 734,-24"/>
<text text-anchor="middle" x="814" y="-126" font-family="FreeSans" font-size="20.00">Ergebnisse</text>
</g>
<g id="clust4" class="cluster"><title>cluster_zx81prg</title>
<polygon fill="none" stroke="black" stroke-dasharray="5,2" points="734,-154 734,-264 894,-264 894,-154 734,-154"/>
<text text-anchor="middle" x="814" y="-244" font-family="FreeSans" font-size="20.00">Befehle</text>
</g>
<!-- CalliopeCPU -->
<g id="node1" class="node"><title>CalliopeCPU</title>
<polygon fill="none" stroke="black" points="0,-61 0,-277 88,-277 88,-61 0,-61"/>
<text text-anchor="middle" x="44" y="-175" font-family="FreeSans" font-size="20.00">Calliope</text>
<text text-anchor="middle" x="44" y="-153" font-family="FreeSans" font-size="20.00">CPU</text>
</g>
<!-- ZX81CPU -->
<g id="node2" class="node"><title>ZX81CPU</title>
<polygon fill="none" stroke="black" points="395,-25 395,-313 535,-313 535,-25 395,-25"/>
<text text-anchor="middle" x="465" y="-197" font-family="FreeSans" font-size="20.00">ZX81</text>
<text text-anchor="middle" x="465" y="-175" font-family="FreeSans" font-size="20.00">CPU</text>
<text text-anchor="middle" x="465" y="-153" font-family="FreeSans" font-size="20.00">als Programm</text>
<text text-anchor="middle" x="465" y="-131" font-family="FreeSans" font-size="20.00"> für Calliope</text>
</g>
<!-- CalliopeCPU&#45;&gt;ZX81CPU -->
<g id="edge5" class="edge"><title>CalliopeCPU&#45;&gt;ZX81CPU</title>
<path fill="none" stroke="black" d="M88.2622,-169C158.053,-169 296.537,-169 384.488,-169"/>
<polygon fill="black" stroke="black" points="384.69,-172.5 394.69,-169 384.689,-165.5 384.69,-172.5"/>
<text text-anchor="middle" x="237.5" y="-175" font-family="FreeSans" font-size="20.00">führt Befehle aus Programm aus</text>
</g>
<!-- erg2 -->
<g id="node3" class="node"><title>erg2</title>
<text text-anchor="start" x="750" y="-45" font-family="FreeSans" font-size="20.00">b=3</text>
</g>
<!-- ZX81CPU&#45;&gt;erg2 -->
<g id="edge4" class="edge"><title>ZX81CPU&#45;&gt;erg2</title>
<path fill="none" stroke="black" d="M535.024,-90.5846C537.634,-88.936 540.294,-87.4007 543,-86 601.314,-55.8102 675.804,-47.7794 731.766,-46.7512"/>
<polygon fill="black" stroke="black" points="732.032,-50.2485 741.992,-46.6369 731.953,-43.249 732.032,-50.2485"/>
<text text-anchor="middle" x="630.5" y="-92" font-family="FreeSans" font-size="20.00">4. schreibt Ergebnis</text>
</g>
<!-- erg1 -->
<g id="node4" class="node"><title>erg1</title>
<text text-anchor="start" x="750" y="-85" font-family="FreeSans" font-size="20.00">a=2</text>
</g>
<!-- ZX81CPU&#45;&gt;erg1 -->
<g id="edge2" class="edge"><title>ZX81CPU&#45;&gt;erg1</title>
<path fill="none" stroke="black" d="M535.198,-148.981C537.829,-148.299 540.436,-147.636 543,-147 606.144,-131.335 678.272,-116.25 732.085,-105.538"/>
<polygon fill="black" stroke="black" points="732.785,-108.967 741.913,-103.589 731.424,-102.101 732.785,-108.967"/>
<text text-anchor="middle" x="630.5" y="-153" font-family="FreeSans" font-size="20.00">2. schreibt Ergebnis</text>
</g>
<!-- cmd2 -->
<g id="node5" class="node"><title>cmd2</title>
<text text-anchor="start" x="750" y="-172" font-family="FreeSans" font-size="20.00">b=1+a</text>
</g>
<!-- ZX81CPU&#45;&gt;cmd2 -->
<g id="edge3" class="edge"><title>ZX81CPU&#45;&gt;cmd2</title>
<path fill="none" stroke="black" d="M535.387,-170.6C592.037,-171.906 672.186,-173.754 731.813,-175.128"/>
<polygon fill="black" stroke="black" points="731.869,-178.63 741.947,-175.362 732.03,-171.632 731.869,-178.63"/>
<text text-anchor="middle" x="630.5" y="-180" font-family="FreeSans" font-size="20.00">3. liest Befehl</text>
</g>
<!-- cmd1 -->
<g id="node6" class="node"><title>cmd1</title>
<text text-anchor="start" x="750" y="-206" font-family="FreeSans" font-size="20.00">a=1+1</text>
</g>
<!-- ZX81CPU&#45;&gt;cmd1 -->
<g id="edge1" class="edge"><title>ZX81CPU&#45;&gt;cmd1</title>
<path fill="none" stroke="black" d="M535.405,-195.283C537.954,-195.914 540.491,-196.491 543,-197 605.445,-209.677 677.586,-212.846 731.581,-213.026"/>
<polygon fill="black" stroke="black" points="731.787,-216.526 741.787,-213.025 731.787,-209.526 731.787,-216.526"/>
<text text-anchor="middle" x="630.5" y="-218" font-family="FreeSans" font-size="20.00">1. liest Befehl</text>
</g>
</g>
</svg>
