<?xml version="1.0" encoding="UTF-8" standalone="no"?>
<!DOCTYPE svg PUBLIC "-//W3C//DTD SVG 1.1//EN"
 "http://www.w3.org/Graphics/SVG/1.1/DTD/svg11.dtd">
<!-- Generated by graphviz version 2.38.0 (20140413.2041)
 -->
<!-- Title: cpuram Pages: 1 -->
<svg width="555pt" height="410pt"
 viewBox="0.00 0.00 555.00 410.00" xmlns="http://www.w3.org/2000/svg" xmlns:xlink="http://www.w3.org/1999/xlink">
<g id="graph0" class="graph" transform="scale(1 1) rotate(0) translate(54 356)">
<title>cpuram</title>
<polygon fill="white" stroke="none" points="-54,54 -54,-356 501,-356 501,54 -54,54"/>
<g id="clust1" class="cluster"><title>cluster_ram</title>
<polygon fill="none" stroke="black" points="263,-8 263,-294 439,-294 439,-8 263,-8"/>
<text text-anchor="middle" x="351" y="-274" font-family="FreeSans" font-size="20.00">Speicher</text>
</g>
<g id="clust2" class="cluster"><title>cluster_prg</title>
<polygon fill="none" stroke="black" stroke-dasharray="5,2" points="271,-146 271,-256 431,-256 431,-146 271,-146"/>
<text text-anchor="middle" x="351" y="-236" font-family="FreeSans" font-size="20.00">Befehle</text>
</g>
<g id="clust3" class="cluster"><title>cluster_erg</title>
<polygon fill="none" stroke="black" stroke-dasharray="5,2" points="271,-16 271,-138 431,-138 431,-16 271,-16"/>
<text text-anchor="middle" x="351" y="-118" font-family="FreeSans" font-size="20.00">Ergebnisse</text>
</g>
<!-- CPU -->
<g id="node1" class="node"><title>CPU</title>
<polygon fill="none" stroke="black" points="0,-11 0,-227 72,-227 72,-11 0,-11"/>
<text text-anchor="middle" x="36" y="-114" font-family="FreeSans" font-size="20.00">CPU</text>
</g>
<!-- cmd1 -->
<g id="node2" class="node"><title>cmd1</title>
<text text-anchor="start" x="287" y="-198" font-family="FreeSans" font-size="20.00">a=1+1</text>
</g>
<!-- CPU&#45;&gt;cmd1 -->
<g id="edge1" class="edge"><title>CPU&#45;&gt;cmd1</title>
<path fill="none" stroke="black" d="M72.145,-181.395C74.6163,-183.479 77.2331,-185.367 80,-187 136.655,-220.428 212.156,-222.062 268.912,-216.689"/>
<polygon fill="black" stroke="black" points="269.339,-220.164 278.925,-215.651 268.617,-213.201 269.339,-220.164"/>
<text text-anchor="middle" x="167.5" y="-225" font-family="FreeSans" font-size="20.00">1. liest Befehl</text>
</g>
<!-- cmd2 -->
<g id="node3" class="node"><title>cmd2</title>
<text text-anchor="start" x="287" y="-164" font-family="FreeSans" font-size="20.00">b=1+a</text>
</g>
<!-- CPU&#45;&gt;cmd2 -->
<g id="edge3" class="edge"><title>CPU&#45;&gt;cmd2</title>
<path fill="none" stroke="black" d="M72.3997,-134.713C74.9452,-135.566 77.4954,-136.341 80,-137 142.078,-153.328 214.39,-161.339 268.548,-165.261"/>
<polygon fill="black" stroke="black" points="268.567,-168.771 278.785,-165.97 269.051,-161.788 268.567,-168.771"/>
<text text-anchor="middle" x="167.5" y="-170" font-family="FreeSans" font-size="20.00">3. liest Befehl</text>
</g>
<!-- erg1 -->
<g id="node4" class="node"><title>erg1</title>
<text text-anchor="start" x="287" y="-77" font-family="FreeSans" font-size="20.00">a=2</text>
</g>
<!-- CPU&#45;&gt;erg1 -->
<g id="edge2" class="edge"><title>CPU&#45;&gt;erg1</title>
<path fill="none" stroke="black" d="M72.2966,-114.828C119.645,-109.23 205.133,-99.1249 268.796,-91.5993"/>
<polygon fill="black" stroke="black" points="269.296,-95.0645 278.816,-90.4147 268.475,-88.1129 269.296,-95.0645"/>
<text text-anchor="middle" x="167.5" y="-120" font-family="FreeSans" font-size="20.00">2. schreibt Ergebnis</text>
</g>
<!-- erg2 -->
<g id="node5" class="node"><title>erg2</title>
<text text-anchor="start" x="287" y="-37" font-family="FreeSans" font-size="20.00">b=3</text>
</g>
<!-- CPU&#45;&gt;erg2 -->
<g id="edge4" class="edge"><title>CPU&#45;&gt;erg2</title>
<path fill="none" stroke="black" d="M72.2126,-75.7969C74.7122,-73.9991 77.3118,-72.3779 80,-71 138.257,-41.1399 212.752,-35.1407 268.73,-35.9026"/>
<polygon fill="black" stroke="black" points="268.887,-39.4066 278.959,-36.1193 269.036,-32.4082 268.887,-39.4066"/>
<text text-anchor="middle" x="167.5" y="-77" font-family="FreeSans" font-size="20.00">4. schreibt Ergebnis</text>
</g>
</g>
</svg>
